<?xml version="1.0" encoding="utf-8"?>
<!-- Generator: Adobe Illustrator 19.1.0, SVG Export Plug-In . SVG Version: 6.00 Build 0)  -->
<svg version="1.1" id="Layer_2" xmlns="http://www.w3.org/2000/svg" xmlns:xlink="http://www.w3.org/1999/xlink" x="0px" y="0px"
	 viewBox="0 0 121.5 124" style="enable-background:new 0 0 121.5 124;" xml:space="preserve">
<style type="text/css">
	.st0{fill:#FFFFFF;stroke:#FFFFFF;stroke-width:3;stroke-miterlimit:10;}
</style>
<path class="st0" d="M2.2,48c0.4,0.4,1,0.7,1.7,0.7c1.3,0,2.4-1.1,2.4-2.4V6.3h39.9c1.3,0,2.4-1.1,2.4-2.4c0-1.3-1.1-2.4-2.4-2.4
	H3.9c-1.3,0-2.4,1.1-2.4,2.4v42.3C1.5,46.9,1.8,47.5,2.2,48"/>
<path class="st0" d="M2.2,5.6l49.2,49.2c0.9,0.9,2.5,0.9,3.4,0c0.9-0.9,0.9-2.5,0-3.4L5.6,2.2c-0.9-0.9-2.5-0.9-3.4,0
	C1.3,3.2,1.3,4.7,2.2,5.6"/>
<path class="st0" d="M119.3,48c-0.4,0.4-1,0.7-1.7,0.7c-1.3,0-2.4-1.1-2.4-2.4V6.3H75.3c-1.3,0-2.4-1.1-2.4-2.4
	c0-1.3,1.1-2.4,2.4-2.4h42.3c1.3,0,2.4,1.1,2.4,2.4v42.3C120,46.9,119.8,47.5,119.3,48"/>
<path class="st0" d="M119.3,5.6L70.1,54.8c-0.9,0.9-2.5,0.9-3.4,0c-0.9-0.9-0.9-2.5,0-3.4l49.2-49.2c0.9-0.9,2.5-0.9,3.4,0
	C120.3,3.2,120.3,4.7,119.3,5.6"/>
<path class="st0" d="M2.2,76.1c0.4-0.4,1-0.7,1.7-0.7c1.3,0,2.4,1.1,2.4,2.4v39.9h39.9c1.3,0,2.4,1.1,2.4,2.4c0,1.3-1.1,2.4-2.4,2.4
	H3.9c-1.3,0-2.4-1.1-2.4-2.4V77.8C1.5,77.1,1.8,76.5,2.2,76.1"/>
<path class="st0" d="M2.2,118.4l49.2-49.2c0.9-0.9,2.5-0.9,3.4,0c0.9,0.9,0.9,2.5,0,3.4L5.6,121.8c-0.9,0.9-2.5,0.9-3.4,0
	C1.3,120.9,1.3,119.4,2.2,118.4"/>
<path class="st0" d="M119.3,76.1c-0.4-0.4-1-0.7-1.7-0.7c-1.3,0-2.4,1.1-2.4,2.4v39.9H75.3c-1.3,0-2.4,1.1-2.4,2.4
	c0,1.3,1.1,2.4,2.4,2.4h42.3c1.3,0,2.4-1.1,2.4-2.4V77.8C120,77.1,119.8,76.5,119.3,76.1"/>
<path class="st0" d="M119.3,118.4L70.1,69.2c-0.9-0.9-2.5-0.9-3.4,0c-0.9,0.9-0.9,2.5,0,3.4l49.2,49.2c0.9,0.9,2.5,0.9,3.4,0
	C120.3,120.9,120.3,119.4,119.3,118.4"/>
</svg>
