<?xml version="1.0" encoding="utf-8"?>
<!-- Generator: Adobe Illustrator 19.1.0, SVG Export Plug-In . SVG Version: 6.00 Build 0)  -->
<svg version="1.1" id="_xF91C_迹_x5F_1" xmlns="http://www.w3.org/2000/svg" xmlns:xlink="http://www.w3.org/1999/xlink" x="0px"
	 y="0px" viewBox="0 0 33.3 38" style="enable-background:new 0 0 33.3 38;" xml:space="preserve">
<style type="text/css">
	.st0{fill:#FFFFFF;}
</style>
<g>
	<path class="st0" d="M32.5,38H21c-0.4,0-0.8-0.3-0.8-0.8v-11c0-2-1.6-3.6-3.6-3.6s-3.6,1.6-3.6,3.6v11c0,0.4-0.3,0.8-0.8,0.8H0.8
		C0.3,38,0,37.6,0,37.2V14.6c0-0.2,0.1-0.4,0.3-0.6L16.2,0.2c0.3-0.2,0.7-0.2,1,0L33,14.1c0.2,0.1,0.3,0.3,0.3,0.6v22.6
		C33.3,37.6,33,38,32.5,38z"/>
</g>
</svg>
