<?xml version="1.0" encoding="utf-8"?>
<!-- Generator: Adobe Illustrator 19.1.0, SVG Export Plug-In . SVG Version: 6.00 Build 0)  -->
<svg version="1.1" id="격리_모드" xmlns="http://www.w3.org/2000/svg" xmlns:xlink="http://www.w3.org/1999/xlink" x="0px"
	 y="0px" viewBox="0 0 93.1 98.5" style="enable-background:new 0 0 93.1 98.5;" xml:space="preserve">
<style type="text/css">
	.st0{fill:#FFFFFF;}
</style>
<path class="st0" d="M46.6,0C20.8,0,0,19.3,0,43.1c0,17.6,7.4,26,17.4,33.6l0,0v20.6c0,1,1.1,1.5,1.9,0.9L37,85.1l0.4,0.2
	c3,0.5,6,0.8,9.2,0.8c25.7,0,46.6-19.3,46.6-43.1C93.1,19.3,72.3,0,46.6,0 M31,54c4.6,0,8.5-2.7,9.6-7h6.7
	c-1.6,8.1-8,13.4-16.4,13.4c-9.8,0-17.5-7.3-17.5-17.5c0-10.2,7.8-17.5,17.5-17.5c8.5,0,14.9,5.4,16.4,13.7h-6.7
	c-1-4.5-5.1-7.3-9.7-7.3c-6.6,0-11,4.7-11,11.1C20,49.4,25,54,31,54 M75.4,59.8h-6.2v-14c0-3.2-1.9-4.9-4.7-4.9
	c-3.2,0-5.3,2-5.3,5.9v13H53V25.7h6.2v12.8c1.5-2.3,3.9-3.4,7.1-3.4c2.6,0,4.8,0.9,6.5,2.6c1.7,1.8,2.6,4.2,2.6,7.3V59.8z"/>
</svg>
