<?xml version="1.0" encoding="utf-8"?>
<!-- Generator: Adobe Illustrator 19.1.0, SVG Export Plug-In . SVG Version: 6.00 Build 0)  -->
<svg version="1.1" id="격리_모드" xmlns="http://www.w3.org/2000/svg" xmlns:xlink="http://www.w3.org/1999/xlink" x="0px"
	 y="0px" viewBox="0 0 268.6 222.2" style="enable-background:new 0 0 268.6 222.2;" xml:space="preserve">
<style type="text/css">
	.st0{fill:#FFFFFF;}
</style>
<g id="XMLID_480_">
	<path id="XMLID_511_" class="st0" d="M248.1,185.6v16.1H20.6v-16.1c0-5.7-4.6-10.3-10.3-10.3l0,0c-5.7,0-10.3,4.6-10.3,10.3v36.6
		l20.6,0h227.5v0l20.6,0v-20.6v-16.1c0-5.7-4.6-10.3-10.3-10.3h0C252.7,175.3,248.1,179.9,248.1,185.6z"/>
	<g id="XMLID_494_">
		<path id="XMLID_510_" class="st0" d="M134.3,179.1L134.3,179.1c-5.7,0-10.3-4.6-10.3-10.3V10.3C124,4.6,128.6,0,134.3,0l0,0
			c5.7,0,10.3,4.6,10.3,10.3v158.5C144.6,174.5,140,179.1,134.3,179.1z"/>
		<path id="XMLID_509_" class="st0" d="M211.3,87.9l-61.9,61.9c-8.4,8.4-22,8.4-30.3,0L57.3,87.9c-4.2-4.2-11-4.2-15.2,0l0,0
			c-4.2,4.2-4.2,11,0,15.2l77,77c8.4,8.4,22,8.4,30.3,0l77-77c4.2-4.2,4.2-11,0-15.2l0,0C222.3,83.7,215.5,83.7,211.3,87.9z"/>
	</g>
</g>
</svg>
