<?xml version="1.0" encoding="utf-8"?>
<!-- Generator: Adobe Illustrator 19.1.0, SVG Export Plug-In . SVG Version: 6.00 Build 0)  -->
<svg version="1.1" id="격리_모드" xmlns="http://www.w3.org/2000/svg" xmlns:xlink="http://www.w3.org/1999/xlink" x="0px"
	 y="0px" viewBox="0 0 128 128" style="enable-background:new 0 0 128 128;" xml:space="preserve">
<style type="text/css">
	.st0{fill:#FFFFFF;}
</style>
<g>
	<g>
		<path class="st0" d="M92.7,128H35.3C15.9,128,0,112.1,0,92.7V35.3C0,15.9,15.9,0,35.3,0h57.3C112.1,0,128,15.9,128,35.3v57.3
			C128,112.1,112.1,128,92.7,128z M35.3,13C23,13,13,23,13,35.3v57.3C13,105,23,115,35.3,115h57.3c12.3,0,22.3-10,22.3-22.3V35.3
			C115,23,105,13,92.7,13H35.3z"/>
	</g>
	<path class="st0" d="M64,95.5c-17.4,0-31.5-14.1-31.5-31.5c0-17.4,14.1-31.5,31.5-31.5c17.4,0,31.5,14.1,31.5,31.5
		C95.5,81.4,81.4,95.5,64,95.5z M64,45.5c-10.2,0-18.5,8.3-18.5,18.5c0,10.2,8.3,18.5,18.5,18.5c10.2,0,18.5-8.3,18.5-18.5
		C82.5,53.8,74.2,45.5,64,45.5z"/>
	<circle class="st0" cx="95" cy="30.9" r="8.1"/>
</g>
</svg>
