<?xml version="1.0" encoding="utf-8"?>
<!-- Generator: Adobe Illustrator 19.1.0, SVG Export Plug-In . SVG Version: 6.00 Build 0)  -->
<svg version="1.1" id="Layer_1" xmlns="http://www.w3.org/2000/svg" xmlns:xlink="http://www.w3.org/1999/xlink" x="0px" y="0px"
	 viewBox="0 0 91.6 108.9" style="enable-background:new 0 0 91.6 108.9;" xml:space="preserve">
<style type="text/css">
	.st0{fill:#FFFFFF;}
</style>
<path class="st0" d="M17.4,74.1c5.2,0,9.9-2.3,13.1-5.9l32.4,20.2c-0.7,1.7-1.1,3.6-1.1,5.6c0,8.2,6.7,14.9,14.9,14.9
	c8.2,0,14.9-6.7,14.9-14.9c0-8.2-6.7-14.9-14.9-14.9c-4.4,0-8.3,1.9-11.1,5L33.3,63.8c1-2.2,1.5-4.6,1.5-7.1c0-2.5-0.5-4.8-1.5-7
	L62,26.3c2.6,2.3,6,3.6,9.7,3.6c8.2,0,14.9-6.7,14.9-14.9C86.7,6.7,80,0,71.8,0c-8.2,0-14.9,6.7-14.9,14.9c0,2.7,0.7,5.1,1.9,7.3
	l-28.2,23c-3.2-3.7-7.9-6-13.1-6C7.8,39.3,0,47.1,0,56.7C0,66.3,7.8,74.1,17.4,74.1z M76.7,84.2c5.4,0,9.8,4.4,9.8,9.8
	s-4.4,9.8-9.8,9.8c-5.4,0-9.8-4.4-9.8-9.8S71.3,84.2,76.7,84.2z M71.8,5.2c5.4,0,9.8,4.4,9.8,9.8s-4.4,9.8-9.8,9.8S62,20.3,62,14.9
	S66.4,5.2,71.8,5.2z M17.4,44.5c6.7,0,12.2,5.5,12.2,12.2c0,6.7-5.5,12.2-12.2,12.2c-6.7,0-12.2-5.5-12.2-12.2
	C5.2,49.9,10.7,44.5,17.4,44.5z"/>
</svg>
