<svg xmlns="http://www.w3.org/2000/svg" width="115.999" height="20" viewBox="0 0 115.999 20">
    <path data-name="합치기 1" d="M16.264 19V6.164L10.563 19H8.431L2.737 6.164V19H0V0h2.646l6.84 15.354L16.355 0H19v19z" transform="translate(.5 .5)" style="fill:#fff;stroke:transparent;stroke-miterlimit:10"/>
    <path data-name="합치기 2" d="M0 19V0h13.756v2.461H2.918v5.605H13.3v2.463H2.918v6.029H14V19z" transform="translate(29.499 .5)" style="fill:#fff;stroke:transparent;stroke-miterlimit:10"/>
    <path data-name="합치기 3" d="M4.492 18.436a7.039 7.039 0 0 1-3.934-3.915A7.718 7.718 0 0 1 0 11.6V0h2.725v11.367a6.083 6.083 0 0 0 .313 1.926 4.913 4.913 0 0 0 .921 1.621 4.41 4.41 0 0 0 1.49 1.121 4.74 4.74 0 0 0 2.064.422 4.731 4.731 0 0 0 2.063-.422 4.262 4.262 0 0 0 1.479-1.121 4.975 4.975 0 0 0 .91-1.621 6.056 6.056 0 0 0 .313-1.926V0H15v11.6a7.718 7.718 0 0 1-.557 2.924 7.217 7.217 0 0 1-1.543 2.351 7.017 7.017 0 0 1-2.363 1.561A8.055 8.055 0 0 1 7.513 19a8.056 8.056 0 0 1-3.021-.564z" transform="translate(52.5 .5)" style="fill:#fff;stroke:transparent;stroke-miterlimit:10"/>
    <path data-name="합치기 4" d="m12.988 19-4.342-8.2-5.82 1.438V19H0V0h9.264A7.148 7.148 0 0 1 11.4.318a5.518 5.518 0 0 1 1.849.979 4.681 4.681 0 0 1 1.3 1.643 5.207 5.207 0 0 1 .494 2.34 5.6 5.6 0 0 1-.294 1.9 4.2 4.2 0 0 1-.83 1.389 4.7 4.7 0 0 1-1.277.975 8.982 8.982 0 0 1-1.3.547L16 19zM2.826 9.551 8.492 8.33a7.572 7.572 0 0 0 2.883-1.148 2.253 2.253 0 0 0 .865-1.9 2.731 2.731 0 0 0-.252-1.193 2.48 2.48 0 0 0-.7-.883 3.247 3.247 0 0 0-1.064-.549 4.746 4.746 0 0 0-1.378-.193h-6.02z" transform="translate(77.5 .5)" style="fill:#fff;stroke:transparent;stroke-miterlimit:10"/>
    <path data-name="합치기 5" d="M0 19V0h13.756v2.461H2.918v5.605H13.3v2.463H2.918v6.029H14V19z" transform="translate(101.499 .5)" style="fill:#fff;stroke:transparent;stroke-miterlimit:10"/>
</svg>
